<?xml version="1.0" encoding="UTF-8" standalone="no"?>
<!-- Created with Inkscape (http://www.inkscape.org/) -->

<svg
   width="45.110371mm"
   height="15.412033mm"
   viewBox="0 0 45.110371 15.412033"
   version="1.1"
   id="svg12985"
   xml:space="preserve"
   inkscape:version="1.2 (dc2aedaf03, 2022-05-15)"
   sodipodi:docname="windmill2.svg"
   xmlns:inkscape="http://www.inkscape.org/namespaces/inkscape"
   xmlns:sodipodi="http://sodipodi.sourceforge.net/DTD/sodipodi-0.dtd"
   xmlns="http://www.w3.org/2000/svg"
   xmlns:svg="http://www.w3.org/2000/svg"><sodipodi:namedview
     id="namedview12987"
     pagecolor="#ffffff"
     bordercolor="#000000"
     borderopacity="0.25"
     inkscape:showpageshadow="2"
     inkscape:pageopacity="0.0"
     inkscape:pagecheckerboard="0"
     inkscape:deskcolor="#d1d1d1"
     inkscape:document-units="mm"
     showgrid="false"
     inkscape:zoom="7.319248"
     inkscape:cx="7.5144332"
     inkscape:cy="46.042981"
     inkscape:window-width="3440"
     inkscape:window-height="1387"
     inkscape:window-x="-8"
     inkscape:window-y="-8"
     inkscape:window-maximized="1"
     inkscape:current-layer="svg12985"><inkscape:page
       x="0"
       y="0"
       width="45.110371"
       height="15.412033"
       id="page13166" /><inkscape:page
       x="0.00048246802"
       y="-0.00031565668"
       width="45.109528"
       height="15.412368"
       id="page13168" /></sodipodi:namedview><defs
     id="defs12982" /><g
     inkscape:label="Warstwa 1"
     inkscape:groupmode="layer"
     id="layer1"
     transform="translate(-219.99952,-3.1565668e-4)" /><g
     id="g13116"
     transform="matrix(0.35277776,0,0,0.35277778,4.7602653e-4,-3.1535956e-4)"><g
       id="g13118"><path
         d="M 0.488,31.594 20.77,22.242 3.547,13.188 Z"
         style="fill:#ffa7a7;fill-opacity:1;fill-rule:nonzero;stroke:#000000;stroke-width:0.992123;stroke-linecap:butt;stroke-linejoin:miter;stroke-miterlimit:1;stroke-dasharray:none;stroke-opacity:1"
         id="path13120" /></g><g
       id="g13122"><path
         d="M 20.051,0.391 20.719,22.266 3.367,13.496 Z"
         style="fill:#ffa7a7;fill-opacity:1;fill-rule:nonzero;stroke:#000000;stroke-width:0.992123;stroke-linecap:butt;stroke-linejoin:miter;stroke-miterlimit:1;stroke-dasharray:none;stroke-opacity:1"
         id="path13124" /></g><g
       id="g13126"><path
         d="M 20.727,22.469 39.352,5.02 45.707,21.125 Z"
         style="fill:#78ac78;fill-opacity:1;fill-rule:nonzero;stroke:#000000;stroke-width:0.992123;stroke-linecap:butt;stroke-linejoin:miter;stroke-miterlimit:1;stroke-dasharray:none;stroke-opacity:1"
         id="path13128" /></g><g
       id="g13130"><path
         d="M 11.898,43.195 20.668,22.27 42.387,40.113 Z"
         style="fill:#6878ff;fill-opacity:1;fill-rule:nonzero;stroke:#000000;stroke-width:0.992123;stroke-linecap:butt;stroke-linejoin:miter;stroke-miterlimit:1;stroke-dasharray:none;stroke-opacity:1"
         id="path13132" /></g><g
       id="g13134"><path
         d="m 22.582,22.27 c 0,0.941 -0.766,1.71 -1.711,1.71 -0.945,0 -1.711,-0.769 -1.711,-1.71 0,-0.946 0.766,-1.711 1.711,-1.711 0.945,0 1.711,0.765 1.711,1.711 z"
         style="fill:#000000;fill-opacity:1;fill-rule:nonzero;stroke:#000000;stroke-width:1.26612;stroke-linecap:butt;stroke-linejoin:miter;stroke-miterlimit:1;stroke-dasharray:none;stroke-opacity:1"
         id="path13136" /></g><g
       id="g13138"><path
         d="M 79.176,35.805 94.457,22.398 82.16,16.043 Z"
         style="fill:#ffa7a7;fill-opacity:1;fill-rule:nonzero;stroke:#000000;stroke-width:0.992123;stroke-linecap:butt;stroke-linejoin:miter;stroke-miterlimit:1;stroke-dasharray:none;stroke-opacity:1"
         id="path13140" /></g><g
       id="g13142"><path
         d="M 98.523,3.301 94.406,22.422 81.973,16.371 Z"
         style="fill:#ffa7a7;fill-opacity:1;fill-rule:nonzero;stroke:#000000;stroke-width:0.992123;stroke-linecap:butt;stroke-linejoin:miter;stroke-miterlimit:1;stroke-dasharray:none;stroke-opacity:1"
         id="path13144" /></g><g
       id="g13146"><path
         d="M 94.418,22.625 98.695,3.004 115.844,15.27 Z"
         style="fill:#ffa7a7;fill-opacity:1;fill-rule:nonzero;stroke:#000000;stroke-width:0.992123;stroke-linecap:butt;stroke-linejoin:miter;stroke-miterlimit:1;stroke-dasharray:none;stroke-opacity:1"
         id="path13148" /></g><g
       id="g13150"><path
         d="M 79.594,35.688 94.43,22.281 116.074,40.27 Z"
         style="fill:#ffa7a7;fill-opacity:1;fill-rule:nonzero;stroke:#000000;stroke-width:0.992123;stroke-linecap:butt;stroke-linejoin:miter;stroke-miterlimit:1;stroke-dasharray:none;stroke-opacity:1"
         id="path13152" /></g><g
       id="g13154"><path
         d="m 96.27,22.426 c 0,0.945 -0.766,1.711 -1.711,1.711 -0.946,0 -1.711,-0.766 -1.711,-1.711 0,-0.946 0.765,-1.711 1.711,-1.711 0.945,0 1.711,0.765 1.711,1.711 z"
         style="fill:#000000;fill-opacity:1;fill-rule:nonzero;stroke:#000000;stroke-width:1.26612;stroke-linecap:butt;stroke-linejoin:miter;stroke-miterlimit:1;stroke-dasharray:none;stroke-opacity:1"
         id="path13156" /></g><g
       id="g13158"><path
         d="m 54.605,2.023 c 0.305,-0.281 0.305,-0.773 0,-1.054 -0.281,-0.305 -0.773,-0.305 -1.054,0 L 51.09,3.43 48.605,0.969 c -0.281,-0.305 -0.773,-0.305 -1.054,0 -0.305,0.281 -0.305,0.773 0,1.054 l 2.461,2.461 -2.461,2.485 c -0.305,0.281 -0.305,0.773 0,1.054 0.281,0.305 0.773,0.305 1.054,0 l 2.485,-2.46 2.461,2.46 c 0.281,0.305 0.773,0.305 1.054,0 0.305,-0.281 0.305,-0.773 0,-1.054 l -2.46,-2.485 z"
         style="fill:#ff0000;fill-opacity:1;fill-rule:nonzero;stroke:#000000;stroke-width:0.425197;stroke-linecap:butt;stroke-linejoin:miter;stroke-miterlimit:1;stroke-dasharray:none;stroke-opacity:1"
         id="path13160" /></g><g
       id="g13162"><path
         d="m 127.43,0.824 c 0.304,0.281 0.304,0.774 0,1.055 l -6,6 c -0.282,0.305 -0.774,0.305 -1.055,0 l -3,-3 c -0.305,-0.281 -0.305,-0.774 0,-1.055 0.281,-0.304 0.773,-0.304 1.055,0 l 2.484,2.461 5.461,-5.461 c 0.281,-0.304 0.773,-0.304 1.055,0 z"
         style="fill:#00ff00;fill-opacity:1;fill-rule:nonzero;stroke:#000000;stroke-width:0.425197;stroke-linecap:butt;stroke-linejoin:miter;stroke-miterlimit:1;stroke-dasharray:none;stroke-opacity:1"
         id="path13164" /></g></g></svg>
